@startuml
hide empty members
!pragma svek_trace on


package esib_ptnmslnxrx.siwd #DDDDDD{
class eeqjgrolngern
class nkty
class cavbuib
class fpmpkmqdzkbotqiaftswsaikc
class zqmnlzkqmxisxejssgmf
class ofyyqadmr
class xhzqwqsrhcpbkiibaf
class jfyirqvmroicskgfeks
class uqfskvnstpmvajzmzeipvjdi
}
package lqjcskswcjwgcvufipdaa.siwd #DDDDDD{
class yqmcxwwjkfmaxnlegtelw
}
package zdcmbqchix.siwd #DDDDDD{
class takynipnlztjjpegz
class qbpyfhkxpd
class obzdiueklqledd
class azpcgsmgguwjmlhjpt
class ozzxkodsdfwmurncuxt
class aiuxipwzlkrwtkbfurpzcv
class ctognxflyuiywkrimtbkq
class hkqqzdflvncz
class xbnstbhwacv
abstract class bphgizggbckvwmjwxfuvz
class dcjvuguidqopquxexdl
}
package pdwzmyysm_abstract.siwd #DDDDDD{
}
hide pdwzmyysm_abstract.siwd
package ohuanvhyn_ohkmvhsz.siwd #DDDDDD{
class gqgpgdbyrbqzsxxmynzvupxlh
abstract class lstntjebohdtppnht
class gffqvkgfggzykrgmnpdvxx
class msdmhkgywnqptvtwndrmwokuj
class otahivxfjsathupmitnwzvjm
class kxpkxbhspbyppiwazlr
class xozbzrcajntzxokyt
class mlmhkhgkxtlhjo
class qiwpshviqadjxjfmuknrnalcnu
}
package nasf.siwd #DDDDDD{
abstract class vshkrteetcxle
class ycafpzntklaztec
class gpdsjfhnadjt
class skcfvwncprpdx
abstract class oukcfnwn
class xexc
class duajkyyezphvvbjvi
abstract class sexbucjo
abstract class gvaoxtulf
class roykmffabxcgbupz
class topaesgwlsmnbuhhctdgnptdu
class oifchwe
class eaqcqpcmjps
}
package zqzkar_klrq.siwd #DDDDDD{
class dtdlqqxbqqfnlk
class kqizsejwoyrsawg
class zwwjcddumqujgm
class vuoufhpyaqetfxeiz
class qyrolfybcbvzfrihi
class nlxekuztooktl
class wjatlzcsarbzkfi
abstract class sdoxettlmwtfmfktc
class tohhtlqpncgtlus
class kahbzvwfmnf
class znwkvfjxjofbks
class cyqrpppctb
class lzscu
abstract class nsfinrcahwikjmyvfyv
abstract class ajtv
class twsrdvm
class tdmuspcsc
class cdyq
class itaoejcc
class fwwlejmmjsl
}
package database.siwd #DDDDDD{
class escklquxcjjmelhwoumzc
abstract class soqxthczjcrip
class sqwyrmgkcjbjv
class pmyfughsizsasfl
class rumlxfkylqedrtobjy
class oppmiwfgioslt
}
package mssrda.siwd #DDDDDD{
}
hide mssrda.siwd
package dlpbbgsv.siwd #DDDDDD{
class pibsjlrkippngbae
class dlpbbgsv
class wdidwzcbnpwtqjdmkrhi
abstract class zamsuuhkseacxgkcy
class pdhk
class vnttjznfdnh
class asowfo
}
package fileexypor_tuahckjy.siwd #DDDDDD{
class xnubpajmnbo
class dwizevgzuf
class ysggpwe
class osiytlqftk
class lrnqggtloxt
class rrvwzo
class sbbqjawst
class yvpbsyoldstjgdp
class seruvzuausolprbr
}
package nznj.siwd #DDDDDD{
class pblr
class blcmncknggsqrb
class gkeuzmqywvkioggoqgasads
class dinef
class rivjtvhpozdcjidwr
class njlcobihkjvidumf
class odrfkl
class erhvdfdjayztthc
class Group
}
package wnmbcncghs.siwd #DDDDDD{
class ttzsncstio
class dzonzttmzlguvhy
class iglorftklcxycqbgsz
class usijootilmsjyghon
abstract class quwuaizdgrngawax
class qjgwyldcpnladwf
class ejmcaimpkqyfshl
}
package eaeb.siwd #DDDDDD{
class afpzxnxexzw
class qubhaffyjdr
class dofotghdw
}
package qbbjjrhzlmzqun.siwd #DDDDDD{
class xnrbwenmytixfkdirlbkqv
class rwujnfxdaracnf
class vhkldrlasxqlwxylop
class mzmplayiz
abstract class degqprbialuhzqifijcoo
class uynvoxwxcwqve
class tvep
class yqkyywtlu
class File
class Queue
class xmdddff
class pqjrn
class pztpdmlvgnotjeufb
class axngskqudffpnc
class vcqwjjotzourct
class jlwplqavpiupihi
class dfnoekceryteakt
}
package jfbc.siwd #DDDDDD{
class Application
class cxvhkajrmifqflleidjwweznxll
abstract class wdvoovoo
class naqiasrpfxijtjscupvkoywpjkvltv
class fiwsxsypscmtah
class pkqnfxr
class btgjjwdcj
abstract class gzsethulwsgnltzqmlukmt
class fzfqztivklhilthuasuydwjxxgc
class goodaczirjmajomextmateuotikjr
abstract class ulju
class rrcpax
class qvouoiqi
class bavrdpukapbidrc
class fgffjn
class cucwhwm
}
package itsw.siwd #DDDDDD{
abstract class mbtlces
class fphybklc
class ripr
class julbms
class eitxgdgfktwwk
class sborvrjeatikq
abstract class pgposrnjiobq
class jdgeoktgwghokspdh
class zijhhfefuqlsfpxici
class sslomlkqbh
class ylkehxlfta
class antxg
abstract class emzzvtp
class relfccgrpkzqmhvxdby
class vfkajovjsa
class bqedaenvak
class snxyloqkku
class dnthgsece
class rxfuspixxxg
class mfiybpo
class rjxeouwgsgzbyahp
class uaweqcritgnwriyehvyr
class nnplnerrtqusinyxwnkbznqp
class hihyqcqscvmwguaagzfdsyzjh
class ovmziayweuxqehijdyhsggah
}
package kpeophayibcgy.siwd #DDDDDD{
class obsakrrfhdxxorhcwdwhq
class mrswqvfunfobisfpaw
abstract class bulyfwkfbvrbc
class aasldolvovqvhfrvmi
class sezzjfycplclwinykyvk
class horuoprmmxnrebequkyy
abstract class hawnjow
class joktmjgadlcmwv
} 



oukcfnwn <|-- eeqjgrolngern
vshkrteetcxle <|-- nkty
vshkrteetcxle <|-- cavbuib
vshkrteetcxle <|-- fpmpkmqdzkbotqiaftswsaikc
vshkrteetcxle <|-- uqfskvnstpmvajzmzeipvjdi
sexbucjo <|-- takynipnlztjjpegz
oukcfnwn <|-- qbpyfhkxpd
oukcfnwn <|-- obzdiueklqledd
obzdiueklqledd <|-- azpcgsmgguwjmlhjpt
obzdiueklqledd <|-- ozzxkodsdfwmurncuxt
obzdiueklqledd <|-- aiuxipwzlkrwtkbfurpzcv
obzdiueklqledd <|-- ctognxflyuiywkrimtbkq
xexc <|-- hkqqzdflvncz
qbpyfhkxpd <|-- xbnstbhwacv
bphgizggbckvwmjwxfuvz <|-- dcjvuguidqopquxexdl
sexbucjo <|-- gqgpgdbyrbqzsxxmynzvupxlh
oukcfnwn <|-- lstntjebohdtppnht
lstntjebohdtppnht <|-- gffqvkgfggzykrgmnpdvxx
lstntjebohdtppnht <|-- msdmhkgywnqptvtwndrmwokuj
lstntjebohdtppnht <|-- otahivxfjsathupmitnwzvjm
gvaoxtulf <|-- qiwpshviqadjxjfmuknrnalcnu
vshkrteetcxle <|-- ycafpzntklaztec
vshkrteetcxle <|-- gpdsjfhnadjt
vshkrteetcxle <|-- skcfvwncprpdx
vshkrteetcxle <|-- oukcfnwn
oukcfnwn <|-- xexc
sexbucjo <|-- dtdlqqxbqqfnlk
oukcfnwn <|-- kqizsejwoyrsawg
oukcfnwn <|-- zwwjcddumqujgm
zwwjcddumqujgm <|-- vuoufhpyaqetfxeiz
zwwjcddumqujgm <|-- qyrolfybcbvzfrihi
zwwjcddumqujgm <|-- nlxekuztooktl
zwwjcddumqujgm <|-- wjatlzcsarbzkfi
oukcfnwn <|-- sdoxettlmwtfmfktc
sdoxettlmwtfmfktc <|-- tohhtlqpncgtlus
sdoxettlmwtfmfktc <|-- kahbzvwfmnf
sdoxettlmwtfmfktc <|-- znwkvfjxjofbks
sdoxettlmwtfmfktc <|-- cyqrpppctb
sdoxettlmwtfmfktc <|-- lzscu
nsfinrcahwikjmyvfyv <|-- ajtv
ajtv <|-- twsrdvm
ajtv <|-- tdmuspcsc
nsfinrcahwikjmyvfyv <|-- cdyq
nsfinrcahwikjmyvfyv <|-- itaoejcc
nsfinrcahwikjmyvfyv <|-- fwwlejmmjsl
sexbucjo <|-- escklquxcjjmelhwoumzc
oukcfnwn <|-- soqxthczjcrip
soqxthczjcrip <|-- sqwyrmgkcjbjv
soqxthczjcrip <|-- pmyfughsizsasfl
soqxthczjcrip <|-- rumlxfkylqedrtobjy
sexbucjo <|-- pibsjlrkippngbae
oukcfnwn <|-- dlpbbgsv
vshkrteetcxle <|-- wdidwzcbnpwtqjdmkrhi
vshkrteetcxle <|-- zamsuuhkseacxgkcy
zamsuuhkseacxgkcy <|-- pdhk
zamsuuhkseacxgkcy <|-- vnttjznfdnh
zamsuuhkseacxgkcy <|-- asowfo
sexbucjo <|-- xnubpajmnbo
oukcfnwn <|-- dwizevgzuf
fiwsxsypscmtah <|-- ysggpwe
wdvoovoo <|-- rrvwzo
wdvoovoo <|-- sbbqjawst
obsakrrfhdxxorhcwdwhq <|-- seruvzuausolprbr
vshkrteetcxle <|-- rivjtvhpozdcjidwr
rivjtvhpozdcjidwr <|-- njlcobihkjvidumf
rivjtvhpozdcjidwr <|-- odrfkl
rivjtvhpozdcjidwr <|-- erhvdfdjayztthc
rivjtvhpozdcjidwr <|-- Group
oukcfnwn <|-- ttzsncstio
ttzsncstio <|-- dzonzttmzlguvhy
ttzsncstio <|-- iglorftklcxycqbgsz
ttzsncstio <|-- usijootilmsjyghon
oukcfnwn <|-- quwuaizdgrngawax
quwuaizdgrngawax <|-- qjgwyldcpnladwf
quwuaizdgrngawax <|-- ejmcaimpkqyfshl
sexbucjo <|-- afpzxnxexzw
oukcfnwn <|-- qubhaffyjdr
oukcfnwn <|-- dofotghdw
sexbucjo <|-- xnrbwenmytixfkdirlbkqv
oukcfnwn <|-- rwujnfxdaracnf
rwujnfxdaracnf <|-- vhkldrlasxqlwxylop
rwujnfxdaracnf <|-- mzmplayiz
oukcfnwn <|-- degqprbialuhzqifijcoo
degqprbialuhzqifijcoo <|-- uynvoxwxcwqve
xexc <|-- tvep
degqprbialuhzqifijcoo <|-- yqkyywtlu
xexc <|-- File
degqprbialuhzqifijcoo <|-- Queue
xexc <|-- xmdddff
degqprbialuhzqifijcoo <|-- pqjrn
gvaoxtulf <|-- pztpdmlvgnotjeufb
mfiybpo <|-- axngskqudffpnc
mfiybpo <|-- vcqwjjotzourct
mfiybpo <|-- jlwplqavpiupihi
mfiybpo <|-- dfnoekceryteakt
oukcfnwn <|-- Application
Application <|-- cxvhkajrmifqflleidjwweznxll
oukcfnwn <|-- wdvoovoo
fiwsxsypscmtah <|-- naqiasrpfxijtjscupvkoywpjkvltv
wdvoovoo <|-- fiwsxsypscmtah
fiwsxsypscmtah <|-- pkqnfxr
fiwsxsypscmtah <|-- btgjjwdcj
fiwsxsypscmtah <|-- gzsethulwsgnltzqmlukmt
gzsethulwsgnltzqmlukmt <|-- fzfqztivklhilthuasuydwjxxgc
gzsethulwsgnltzqmlukmt <|-- goodaczirjmajomextmateuotikjr
oukcfnwn <|-- ulju
ulju <|-- rrcpax
ulju <|-- qvouoiqi
Application <|-- bavrdpukapbidrc
oukcfnwn <|-- mbtlces
mbtlces <|-- fphybklc
mbtlces <|-- ripr
oukcfnwn <|-- julbms
oukcfnwn <|-- eitxgdgfktwwk
julbms <|-- sborvrjeatikq
oukcfnwn <|-- pgposrnjiobq
pgposrnjiobq <|-- jdgeoktgwghokspdh
pgposrnjiobq <|-- zijhhfefuqlsfpxici
jdgeoktgwghokspdh <|-- sslomlkqbh
oukcfnwn <|-- ylkehxlfta
oukcfnwn <|-- antxg
oukcfnwn <|-- emzzvtp
emzzvtp <|-- relfccgrpkzqmhvxdby
emzzvtp <|-- vfkajovjsa
emzzvtp <|-- bqedaenvak
oukcfnwn <|-- snxyloqkku
vshkrteetcxle <|-- rxfuspixxxg
oukcfnwn <|-- rjxeouwgsgzbyahp
oukcfnwn <|-- uaweqcritgnwriyehvyr
oukcfnwn <|-- nnplnerrtqusinyxwnkbznqp
nnplnerrtqusinyxwnkbznqp <|-- hihyqcqscvmwguaagzfdsyzjh
nnplnerrtqusinyxwnkbznqp <|-- ovmziayweuxqehijdyhsggah
Application <|-- obsakrrfhdxxorhcwdwhq
obsakrrfhdxxorhcwdwhq <|-- mrswqvfunfobisfpaw
bulyfwkfbvrbc <|-- aasldolvovqvhfrvmi
bulyfwkfbvrbc <|-- sezzjfycplclwinykyvk
bulyfwkfbvrbc <|-- horuoprmmxnrebequkyy
hawnjow <|-- joktmjgadlcmwv 



eeqjgrolngern .. nkty : pfkqldfiiqrpsgcr
eeqjgrolngern .. cavbuib : kvssswwhkcagcgvayepf
eeqjgrolngern .. fpmpkmqdzkbotqiaftswsaikc : fpmpkmqdzkbotqiaftswsaikc
cavbuib .. nkty : ukkosjtqlw
cavbuib .. fpmpkmqdzkbotqiaftswsaikc : meigottpmivrbgbtrpg
nkty .. fpmpkmqdzkbotqiaftswsaikc : gmsihknivpfhjly
eeqjgrolngern .. rivjtvhpozdcjidwr : erhvdfdjayztthc
eeqjgrolngern .. julbms : ovsjxqomusmogcadjkz
eeqjgrolngern .. jdgeoktgwghokspdh : pubixbsmnhiuzrfkolcwgx
eeqjgrolngern .. zqmnlzkqmxisxejssgmf : onifxknzxx
eeqjgrolngern .. ofyyqadmr : upihdklpuhopgnbyravlqlx
ofyyqadmr .. jfyirqvmroicskgfeks : lwwssixlxqkigfscffcc
eeqjgrolngern .. xhzqwqsrhcpbkiibaf : xhzqwqsrhcpbkiibaf
fpmpkmqdzkbotqiaftswsaikc .. ofyyqadmr : bylpkdmfddwltxaeowjowrtpdhfklnlaibl
fpmpkmqdzkbotqiaftswsaikc .. xhzqwqsrhcpbkiibaf : uuylcodoaompyusfhdndzpiylmfikn
eeqjgrolngern .. uqfskvnstpmvajzmzeipvjdi : uqfskvnstpmvajzmzeipvjdi
qbpyfhkxpd .. yqmcxwwjkfmaxnlegtelw : yqmcxwwjkfmaxnlegtelw
yqmcxwwjkfmaxnlegtelw .. rwujnfxdaracnf : yqmcxwwjkfmaxnlegtelw
yqmcxwwjkfmaxnlegtelw .. kqizsejwoyrsawg : yqmcxwwjkfmaxnlegtelw
yqmcxwwjkfmaxnlegtelw .. qubhaffyjdr : yqmcxwwjkfmaxnlegtelw
yqmcxwwjkfmaxnlegtelw .. ttzsncstio : yqmcxwwjkfmaxnlegtelw
yqmcxwwjkfmaxnlegtelw .. soqxthczjcrip : yqmcxwwjkfmaxnlegtelw
qbpyfhkxpd .. ctognxflyuiywkrimtbkq : ctognxflyuiywkrimtbkq
qbpyfhkxpd .. azpcgsmgguwjmlhjpt : azpcgsmgguwjmlhjpt
qbpyfhkxpd .. ozzxkodsdfwmurncuxt : ozzxkodsdfwmurncuxt
qbpyfhkxpd .. aiuxipwzlkrwtkbfurpzcv : aiuxipwzlkrwtkbfurpzcv
qbpyfhkxpd .. dcjvuguidqopquxexdl : dcjvuguidqopquxexdl
qbpyfhkxpd .. hkqqzdflvncz : tttrknmuikml
qbpyfhkxpd .. xbnstbhwacv : thjegvx
qbpyfhkxpd .. rivjtvhpozdcjidwr : erhvdfdjayztthc
qbpyfhkxpd .. takynipnlztjjpegz : takynipnlztjjpegz
qbpyfhkxpd .. jdgeoktgwghokspdh : kdfkojqqtftrihkzonw
qiwpshviqadjxjfmuknrnalcnu .. lstntjebohdtppnht : czfezcblox
qiwpshviqadjxjfmuknrnalcnu .. mlmhkhgkxtlhjo : qvcuprzxtyy
lstntjebohdtppnht .. rivjtvhpozdcjidwr : erhvdfdjayztthc
lstntjebohdtppnht .. kxpkxbhspbyppiwazlr : vmwpaqkybvqw
kxpkxbhspbyppiwazlr .. xozbzrcajntzxokyt : yraxpyrwgajocnxfxdj
lstntjebohdtppnht .. gqgpgdbyrbqzsxxmynzvupxlh : xbomemwhstszpalsn
ycafpzntklaztec .. vshkrteetcxle : gwhztpqsjjfzieexuqwxn
roykmffabxcgbupz .. oifchwe : ecqrecowewuhciuzwfx
topaesgwlsmnbuhhctdgnptdu .. njlcobihkjvidumf : topaesgwlsmnbuhhctdgnptdu
oifchwe .. eaqcqpcmjps : Link
oifchwe .. gpdsjfhnadjt : esbkgecgoutxthzsfkuncpr
oifchwe .. rivjtvhpozdcjidwr : cgkwjsjfxqbrfmrdepbdqnyrsggw
gpdsjfhnadjt .. skcfvwncprpdx : igazdstclimgefltifrvjrvu
skcfvwncprpdx .. oukcfnwn : lbmpgpsbtvbfbxowcto
xexc .. xexc : gkeblzaujjp
sexbucjo .. pgposrnjiobq : axxosnkzjkbkkrm
duajkyyezphvvbjvi .. sexbucjo : esyjcnxuevwguqdbabk
kqizsejwoyrsawg .. zwwjcddumqujgm : luevhlbkxctirjlh
zwwjcddumqujgm .. sdoxettlmwtfmfktc : oqtkahfaswfcrusmun
sdoxettlmwtfmfktc .. nsfinrcahwikjmyvfyv : gvjopqvrtshzf
dtdlqqxbqqfnlk .. kqizsejwoyrsawg : sexbucjo
brnbvi .. twsrdvm : bvnndnhcjrdis
bxeyecms .. tdmuspcsc : bvnndnhcjrdis
iwimrioalnpy .. cdyq : bvnndnhcjrdis
mliaxbftyl .. itaoejcc : bvnndnhcjrdis
gsvluevqlr .. Node : bvnndnhcjrdis
gsvluevqlr .. tuea : bvnndnhcjrdis
escklquxcjjmelhwoumzc .. soqxthczjcrip : escklquxcjjmelhwoumzc
soqxthczjcrip .. xexc : eyyoseevtoxd
soqxthczjcrip .. oppmiwfgioslt : ybwuiswejtyizgm
oppmiwfgioslt .. odrfkl : cgqlzbnleuylwetpikw
dlpbbgsv .. zamsuuhkseacxgkcy : zamsuuhkseacxgkcy
dlpbbgsv .. rwujnfxdaracnf : vdqnhrjabwtznrsplv
pibsjlrkippngbae .. dlpbbgsv : sexbucjo
vnttjznfdnh .. pdhk : xzsbksoermklor
vnttjznfdnh .. asowfo : occfaieigudcilvtl
wdidwzcbnpwtqjdmkrhi .. rivjtvhpozdcjidwr : kjsxbvypiycmkibnpobhwkn
wdidwzcbnpwtqjdmkrhi .. dlpbbgsv : kwqkzllrkoqdwydhdyd
gygnoj .. wdidwzcbnpwtqjdmkrhi : wpnsdbaokxtaocckfzlomumn
fiwsxsypscmtah .. lrnqggtloxt : gfaxsrudbpkodgelfh
ysggpwe .. fiwsxsypscmtah : tjnqgkwv
ysggpwe .. seruvzuausolprbr : nksuyoxolareucimsnrv
rrvwzo .. osiytlqftk : ekwtzizrwp
rrvwzo .. seruvzuausolprbr : mweibgxr
rrvwzo .. sbbqjawst : xxexhanfzvnkdmowjrb
dwizevgzuf .. osiytlqftk : hoasckrtplkhfv
dwizevgzuf .. lrnqggtloxt : drkwudwuswgjtuchcos
dwizevgzuf .. rivjtvhpozdcjidwr : erhvdfdjayztthc
dwizevgzuf .. lstntjebohdtppnht : oqjtziywbvaiaucuq
dwizevgzuf .. xnubpajmnbo : xnubpajmnbo
gygnoj .. vshkrteetcxle : osiktjwqtbgyhakcje
njlcobihkjvidumf .. eaqcqpcmjps : lfipehgjujifpwkzatswzlfzcepr
gkeuzmqywvkioggoqgasads .. blcmncknggsqrb : lurwrszogsxfobspnxxbemjce
gkeuzmqywvkioggoqgasads .. gpdsjfhnadjt : frptledzrjiaqehpxyekiji
blcmncknggsqrb .. rivjtvhpozdcjidwr : wnnajadjpsexgpw
blcmncknggsqrb .. pblr : mfwgnycbbbmae
blcmncknggsqrb .. dinef : kymycxvzumprubzbpjk
dinef .. dinef : aoaxtclomyxld
vshkrteetcxle .. dinef : jwnwnnlwohlskm
pblr .. avvtdxmjkata : jyeqlpxpglqied
pblr .. dgztlnezypv : bnqixybmvhutxxyll
jijazoptkqsrfcxmz .. gygnoj : lukqckphops
gygnoj .. gygnoj : czjjfdqjuzrryvy
Group .. rivjtvhpozdcjidwr : aclnijnbitdsurk
ttzsncstio .. quwuaizdgrngawax : quwuaizdgrngawax
qubhaffyjdr .. dofotghdw : xzzmrjqiepbpggsrp
afpzxnxexzw .. dofotghdw : afpzxnxexzw
qubhaffyjdr .. xexc : ayjikxwflghlmxk
mfiybpo .. degqprbialuhzqifijcoo : mfiybpo
rwujnfxdaracnf .. pgposrnjiobq : uqfqmtqjsumieo
rwujnfxdaracnf .. pztpdmlvgnotjeufb : khakfjfasrbzhdqjnymvhav
rwujnfxdaracnf .. degqprbialuhzqifijcoo : degqprbialuhzqifijcoo
degqprbialuhzqifijcoo .. xexc : orwzdmvkw
xnrbwenmytixfkdirlbkqv .. rwujnfxdaracnf : sexbucjo
Application .. wdvoovoo : wgqujwckadyraptfiosqmqns
Application .. wdvoovoo : rodrrszdcimuzhzybezjlezpojs
fgffjn .. fiwsxsypscmtah : qtylzxdzifqttskcw
cucwhwm .. fiwsxsypscmtah : cyuplwmkxidfbnvqmj
rrcpax .. fiwsxsypscmtah : ukjugbskccbkst
rrcpax .. bavrdpukapbidrc : elowgttfkqxspuxoogxzi
bavrdpukapbidrc .. fiwsxsypscmtah : bavrdpukapbidrc
qvouoiqi .. fiwsxsypscmtah : hqztuguaoymhvnep
qvouoiqi .. xexc : orrezmnlnwjilsdfjd
gzsethulwsgnltzqmlukmt .. fiwsxsypscmtah : swtvfdwoxmoraikvfj
fiwsxsypscmtah .. rivjtvhpozdcjidwr : erhvdfdjayztthc
emzzvtp .. mbtlces : emzzvtp
emzzvtp .. mbtlces : emzzvtp
julbms .. mbtlces : rghahhi
julbms .. ylkehxlfta : zfhiyjgztvpiaaus
julbms .. emzzvtp : wxjqggoozpiih
ylkehxlfta .. mbtlces : dttzybtxgrtmfj
ylkehxlfta .. antxg : yumijsnzxqqrjrwu
antxg .. emzzvtp : gtyxhmgruyno
antxg .. ripr : wixetswdjp
antxg .. julbms : yflgbojgrsk
fphybklc .. mfiybpo : aemrprgvhsgoqxdubgnbtlogafp
emzzvtp .. snxyloqkku : ywbpqvbvbtbxj
emzzvtp .. zijhhfefuqlsfpxici : jhchdelatoqyqoufndrqswm
emzzvtp .. jdgeoktgwghokspdh : owrmfxwefcntfglipuuoqp
snxyloqkku .. snxyloqkku : claosxvtb
ripr .. sborvrjeatikq : nalstczvaueuowhofz
ripr .. rxfuspixxxg : ugkeaexhlbhvtypitrlid
wdvoovoo .. rjxeouwgsgzbyahp : pynpgpivgtfxinvbr
emzzvtp .. rjxeouwgsgzbyahp : ehdlmexwmukenjcw
Application .. dnthgsece : fxqvoqmnjwgk
dnthgsece .. dnthgsece : khmftmnknqoqruklwcfn
rjxeouwgsgzbyahp .. zijhhfefuqlsfpxici : raibalsmeexszdalolxuipvbd
rjxeouwgsgzbyahp .. julbms : rbikzkhzivctdaxcyh
julbms .. pgposrnjiobq : udkqwljlnzetjkwdkxz
pgposrnjiobq .. pgposrnjiobq : gmekqbvlhkcexvzssxnplqk
jdgeoktgwghokspdh .. zijhhfefuqlsfpxici : njzjqzomtffwacyuneqpu
Application .. rjxeouwgsgzbyahp : wenhqpxuwtopcisuvtpg
uaweqcritgnwriyehvyr .. rjxeouwgsgzbyahp : bnrtpmoravslh
uaweqcritgnwriyehvyr .. nnplnerrtqusinyxwnkbznqp : bnpbkyttj
nnplnerrtqusinyxwnkbznqp .. dnthgsece : viwsxdanhbgj
nnplnerrtqusinyxwnkbznqp .. pgposrnjiobq : bofsxncalnzmbpvz
uaweqcritgnwriyehvyr .. ovmziayweuxqehijdyhsggah : yneqblxnqgpem
uaweqcritgnwriyehvyr .. hihyqcqscvmwguaagzfdsyzjh : uknytypgomk
pgposrnjiobq .. ovmziayweuxqehijdyhsggah : nhglndqahdaskyx
pgposrnjiobq .. hihyqcqscvmwguaagzfdsyzjh : rgmojltuvtfiz
julbms .. uaweqcritgnwriyehvyr : fidvqnrkm
bulyfwkfbvrbc .. Application : mucftbsrtbgbpehkpptvvhtn
bulyfwkfbvrbc .. hawnjow : fqtgjswpokehbscbinxt
@enduml