@startuml
skinparam model FOO
[*] --> NotShooting

state NotShooting {
  state Configuring {
    [*] --> NewValueSelection
    NewValueSelection --> NewValuePreview : EvNewValue
    NewValuePreview --> NewValueSelection : EvNewValueRejected
    NewValuePreview --> NewValueSelection : EvNewValueSaved
  }
  [*] --> Idle
  Idle --> Configuring : EvConfig
  Configuring --> Idle : EvConfig
}
@enduml