@startuml
class "Packstaftion" as PackSt
class "Aktueller Kunde" as Kd
class "User Interface" as UI {
funktionsAuswahl()
fehlermeldungAusgeben()
informationAusgeben()
}
'Darstellen VerEinh nutzt Fehlermeldungsmethode von UI'
class "Touch Display" as TouchDisp
class "Sprachsteuerung" as SprStrg
class "Eingabefeld" as EingFld
class "Barcode-Scanner" as BCScan
class "Verarbeitungseinheit" as VerEinh

PackSt "1" -- "1" Kd : besetzt <
PackSt o-- UI
PackSt "1" o-- "1" VerEinh

UI "1" o-- "1..2" TouchDisp
UI "1" o-- "1" SprStrg
UI "1" o-- "1..2" EingFld
UI "1" o-- "1" BCScan

Kd - UI: interagiert
UI "FrontEnd" -- "BackEnd" VerEinh
@enduml