@startuml

class javax.sound.sampled.AudioFormat.Encoding
class net.sourceforge.mazix.components.sound.AudioManager
class net.sourceforge.mazix.components.sound.AudioTest
net.sourceforge.mazix.components.sound.AudioManager ..> javax.sound.sampled.AudioFormat.Encoding
net.sourceforge.mazix.components.sound.AudioTest ..> javax.sound.sampled.AudioFormat
@enduml