@startuml
set separator none
state comp1 {
    comp1: exxxxxxxxxxxxxxxxxxxxxxxxxxxxxxxxxxxxxxxxx
    comp1: e
    comp1: e
    comp1: e
    comp1: e

    state en1 <<entrypoint>>
    state en2 <<entrypoint>>
    state ex1 <<exitpoint>>
}
state comp2 {
    [*] --> wait2
    wait2 -up-> action2: Timeout
    action2 --> wait2: Failed
}
state comp3 {
}
action2 -up-> en2: info2
comp2 -up-> en1: Information
comp3 -down-> en1: info3
comp4 --> ff
@enduml