@startuml
[*] --> NotShooting

state "This is not Shooting " as NotShooting begin
  [*] --> Idle
  Idle --> Configuring : EvConfig
  Configuring --> Idle : EvConfig

  state Configuring {
    [*] --> NewValueSelection
    NewValueSelection --> NewValuePreview : EvNewValue
    NewValuePreview --> NewValueSelection : EvNewValueRejected
    NewValuePreview --> NewValueSelection : EvNewValueSaved
  }

end state

@enduml