@startuml
class BaseClass

namespace net.dummy #DDDDDD {
    .BaseClass <|-- Person
    Meeting o-- Person
    
    .BaseClass <|- Meeting

}

namespace net.foo {
  class Person
  net.dummy.Person  <|- Person
  .BaseClass <|-- Person

  net.dummy.Meeting o-- Person
}

BaseClass <|-- net.unused.Person
@enduml